HIERARCHY
ROOT Hips
{
    OFFSET 0.000000 0.000000 0.000000
    CHANNELS 6 Xposition Yposition Zposition Zrotation Xrotation Yrotation
    JOINT Spine
    {
        OFFSET -0.000000 7.305680 0.000000
        CHANNELS 3 Zrotation Xrotation Yrotation
        JOINT Spine1
        {
            OFFSET -0.000000 20.356600 0.000000
            CHANNELS 3 Zrotation Xrotation Yrotation
            JOINT Neck
            {
                OFFSET -0.000000 22.138500 0.000000
                CHANNELS 3 Zrotation Xrotation Yrotation
                JOINT Head
                {
                    OFFSET -0.000000 13.809501 1.781870
                    CHANNELS 3 Zrotation Xrotation Yrotation
                    End Site
                    {
                        OFFSET -0.000000 17.818779 0.000000
                    }
                }
            }
            JOINT LeftShoulder
            {
                OFFSET 3.599130 17.990000 0.023591
                CHANNELS 3 Zrotation Xrotation Yrotation
                JOINT LeftArm
                {
                    OFFSET 12.560999 0.000000 0.000000
                    CHANNELS 3 Zrotation Xrotation Yrotation
                    JOINT LeftForeArm
                    {
                        OFFSET 22.903299 0.000000 0.000000
                        CHANNELS 3 Zrotation Xrotation Yrotation
                        JOINT LeftHand
                        {
                            OFFSET 21.865299 0.000000 0.000000
                            CHANNELS 3 Zrotation Xrotation Yrotation
                            JOINT LeftHandThumb1
                            {
                                OFFSET 1.853710 -2.106480 2.949080
                                CHANNELS 3 Zrotation Xrotation Yrotation
                                JOINT LeftHandThumb2
                                {
                                    OFFSET 2.049150 0.000000 1.336400
                                    CHANNELS 3 Zrotation Xrotation Yrotation
                                    JOINT LeftHandThumb3
                                    {
                                        OFFSET 2.672810 0.000000 0.000000
                                        CHANNELS 3 Zrotation Xrotation Yrotation
                                        End Site
                                        {
                                            OFFSET 2.381310 0.000000 0.000000
                                        }
                                    }
                                }
                            }
                            JOINT LeftHandIndex1
                            {
                                OFFSET 7.583340 0.000000 2.949080
                                CHANNELS 3 Zrotation Xrotation Yrotation
                                JOINT LeftHandIndex2
                                {
                                    OFFSET 4.454680 0.000000 0.000000
                                    CHANNELS 3 Zrotation Xrotation Yrotation
                                    JOINT LeftHandIndex3
                                    {
                                        OFFSET 2.227340 0.000000 0.000000
                                        CHANNELS 3 Zrotation Xrotation Yrotation
                                        End Site
                                        {
                                            OFFSET 1.984424 0.000000 0.000000
                                        }
                                    }
                                }
                            }
                            JOINT LeftHandMiddle1
                            {
                                OFFSET 7.583340 0.000000 0.977409
                                CHANNELS 3 Zrotation Xrotation Yrotation
                                JOINT LeftHandMiddle2
                                {
                                    OFFSET 4.900150 0.000000 0.000000
                                    CHANNELS 3 Zrotation Xrotation Yrotation
                                    JOINT LeftHandMiddle3
                                    {
                                        OFFSET 2.672810 0.000000 0.000000
                                        CHANNELS 3 Zrotation Xrotation Yrotation
                                        End Site
                                        {
                                            OFFSET 2.381310 0.000000 0.000000
                                        }
                                    }
                                }
                            }
                            JOINT LeftHandRing1
                            {
                                OFFSET 7.162050 0.000000 -0.977409
                                CHANNELS 3 Zrotation Xrotation Yrotation
                                JOINT LeftHandRing2
                                {
                                    OFFSET 4.454680 0.000000 0.000000
                                    CHANNELS 3 Zrotation Xrotation Yrotation
                                    JOINT LeftHandRing3
                                    {
                                        OFFSET 2.227340 0.000000 0.000000
                                        CHANNELS 3 Zrotation Xrotation Yrotation
                                        End Site
                                        {
                                            OFFSET 1.984424 0.000000 0.000000
                                        }
                                    }
                                }
                            }
                            JOINT LeftHandPinky1
                            {
                                OFFSET 6.740750 0.000000 -2.949080
                                CHANNELS 3 Zrotation Xrotation Yrotation
                                JOINT LeftHandPinky2
                                {
                                    OFFSET 3.563750 0.000000 0.000000
                                    CHANNELS 3 Zrotation Xrotation Yrotation
                                    JOINT LeftHandPinky3
                                    {
                                        OFFSET 1.781870 0.000000 0.000000
                                        CHANNELS 3 Zrotation Xrotation Yrotation
                                        End Site
                                        {
                                            OFFSET 1.587538 0.000000 0.000000
                                        }
                                    }
                                }
                            }
                        }
                    }
                }
            }
            JOINT RightShoulder
            {
                OFFSET -3.506990 17.990000 0.023591
                CHANNELS 3 Zrotation Xrotation Yrotation
                JOINT RightArm
                {
                    OFFSET -12.560999 0.000000 0.000000
                    CHANNELS 3 Zrotation Xrotation Yrotation
                    JOINT RightForeArm
                    {
                        OFFSET -22.903299 0.000000 0.000000
                        CHANNELS 3 Zrotation Xrotation Yrotation
                        JOINT RightHand
                        {
                            OFFSET -21.865299 0.000000 0.000000
                            CHANNELS 3 Zrotation Xrotation Yrotation
                            JOINT RightHandThumb1
                            {
                                OFFSET -1.853710 -2.106480 2.949080
                                CHANNELS 3 Zrotation Xrotation Yrotation
                                JOINT RightHandThumb2
                                {
                                    OFFSET -2.049150 0.000000 1.336400
                                    CHANNELS 3 Zrotation Xrotation Yrotation
                                    JOINT RightHandThumb3
                                    {
                                        OFFSET -2.672810 0.000000 0.000000
                                        CHANNELS 3 Zrotation Xrotation Yrotation
                                        End Site
                                        {
                                            OFFSET -2.381310 0.000000 0.000000
                                        }
                                    }
                                }
                            }
                            JOINT RightHandIndex1
                            {
                                OFFSET -7.583340 0.000000 2.949080
                                CHANNELS 3 Zrotation Xrotation Yrotation
                                JOINT RightHandIndex2
                                {
                                    OFFSET -4.454680 0.000000 0.000000
                                    CHANNELS 3 Zrotation Xrotation Yrotation
                                    JOINT RightHandIndex3
                                    {
                                        OFFSET -2.227340 0.000000 0.000000
                                        CHANNELS 3 Zrotation Xrotation Yrotation
                                        End Site
                                        {
                                            OFFSET -1.984424 0.000000 0.000000
                                        }
                                    }
                                }
                            }
                            JOINT RightHandMiddle1
                            {
                                OFFSET -7.583340 0.000000 0.977409
                                CHANNELS 3 Zrotation Xrotation Yrotation
                                JOINT RightHandMiddle2
                                {
                                    OFFSET -4.900150 0.000000 0.000000
                                    CHANNELS 3 Zrotation Xrotation Yrotation
                                    JOINT RightHandMiddle3
                                    {
                                        OFFSET -2.672810 0.000000 0.000000
                                        CHANNELS 3 Zrotation Xrotation Yrotation
                                        End Site
                                        {
                                            OFFSET -2.381310 0.000000 0.000000
                                        }
                                    }
                                }
                            }
                            JOINT RightHandRing1
                            {
                                OFFSET -7.162050 0.000000 -0.977409
                                CHANNELS 3 Zrotation Xrotation Yrotation
                                JOINT RightHandRing2
                                {
                                    OFFSET -4.454680 0.000000 0.000000
                                    CHANNELS 3 Zrotation Xrotation Yrotation
                                    JOINT RightHandRing3
                                    {
                                        OFFSET -2.227340 0.000000 0.000000
                                        CHANNELS 3 Zrotation Xrotation Yrotation
                                        End Site
                                        {
                                            OFFSET -1.984424 0.000000 0.000000
                                        }
                                    }
                                }
                            }
                            JOINT RightHandPinky1
                            {
                                OFFSET -6.740750 0.000000 -2.949080
                                CHANNELS 3 Zrotation Xrotation Yrotation
                                JOINT RightHandPinky2
                                {
                                    OFFSET -3.563750 0.000000 0.000000
                                    CHANNELS 3 Zrotation Xrotation Yrotation
                                    JOINT RightHandPinky3
                                    {
                                        OFFSET -1.781870 0.000000 0.000000
                                        CHANNELS 3 Zrotation Xrotation Yrotation
                                        End Site
                                        {
                                            OFFSET -1.587538 0.000000 0.000000
                                        }
                                    }
                                }
                            }
                        }
                    }
                }
            }
        }
    }
    JOINT LeftUpLeg
    {
        OFFSET 8.909360 0.000000 0.000000
        CHANNELS 3 Zrotation Xrotation Yrotation
        JOINT LeftLeg
        {
            OFFSET -0.000000 -38.765602 0.000000
            CHANNELS 3 Zrotation Xrotation Yrotation
            JOINT LeftFoot
            {
                OFFSET -0.000000 -35.245003 0.000000
                CHANNELS 3 Zrotation Xrotation Yrotation
                JOINT LeftToeBase
                {
                    OFFSET -0.000000 -5.791090 13.364000
                    CHANNELS 3 Zrotation Xrotation Yrotation
                    End Site
                    {
                        OFFSET -0.000000 0.000000 3.563756
                    }
                }
            }
        }
    }
    JOINT RightUpLeg
    {
        OFFSET -8.909360 0.000000 0.000000
        CHANNELS 3 Zrotation Xrotation Yrotation
        JOINT RightLeg
        {
            OFFSET -0.000000 -38.765602 0.000000
            CHANNELS 3 Zrotation Xrotation Yrotation
            JOINT RightFoot
            {
                OFFSET -0.000000 -35.245003 0.000000
                CHANNELS 3 Zrotation Xrotation Yrotation
                JOINT RightToeBase
                {
                    OFFSET -0.000000 -5.791090 13.364000
                    CHANNELS 3 Zrotation Xrotation Yrotation
                    End Site
                    {
                        OFFSET -0.000000 0.000000 3.563756
                    }
                }
            }
        }
    }
}
MOTION
Frames:    4
Frame Time:    0.033333
-7.567044    80.385429    111.401436    2.575080    -6.133316    0.943583    2.855678    6.995375    2.812786    -10.368127    7.548538    1.680625    2.535499    -2.427807    -3.249750    6.406444    -8.245196    -3.443015    3.156937    -1.986767    -19.825468    -71.279160    18.999800    -10.638543    -7.614480    -49.594746    -96.681534    -18.614740    -78.211220    -18.086086    4.048607    2.630066    7.897727    -0.000000    0.000000    6.926886    -0.000000    0.000000    13.853772    2.843586    0.000000    -0.000000    0.000000    0.000000    0.000000    0.000000    0.000000    0.000000    -10.067339    -0.633050    1.477196    -23.974979    0.000000    0.000000    -11.987490    0.000000    0.000000    -22.961346    -1.579966    2.775962    -47.949959    0.000000    0.000000    -23.974979    0.000000    0.000000    -36.230274    -2.832904    3.858963    -72.651451    0.000000    0.000000    -36.325726    0.000000    0.000000    -8.178830    -10.552688    6.492198    66.962044    47.822281    17.925373    -2.645654    -56.979565    72.963036    41.161259    -68.502800    34.119637    0.097544    0.755365    -1.134380    0.000000    0.000000    -1.765862    0.000000    0.000000    -3.531725    0.039565    0.000000    -0.000000    0.079129    0.000000    -0.000000    0.039565    0.000000    -0.000000    9.865474    -0.852341    -2.356069    19.791393    0.000000    -0.000000    9.895699    0.000000    -0.000000    19.652937    -2.093547    -4.533191    39.503670    0.000000    -0.000000    19.751829    0.000000    -0.000000    29.693436    -3.739231    -6.524317    59.813263    0.000000    -0.000000    29.906631    0.000000    -0.000000    -2.527875    -15.543983    -2.326789    -0.850236    36.736557    16.418682    11.335117    -6.578406    -11.484354    -2.935275    -7.431637    7.402437    2.242519    -2.560657    3.190955    2.934718    23.530207    -11.377222    4.767155    -17.275723    4.732145    2.302830    -13.472553    -5.766179    
-7.565560    80.608559    111.779510    2.849225    -5.814937    0.730669    2.794339    6.857012    2.964783    -11.196012    6.798525    1.710789    2.886868    -2.487906    -3.280453    6.468502    -8.072024    -3.450391    3.870265    -2.350087    -20.093342    -66.983688    16.276705    -10.792282    -10.608124    -43.332256    -111.095436    -41.914120    -72.498680    -40.779942    5.013066    1.148547    7.204417    -0.000000    0.000000    6.362668    -0.000000    0.000000    12.725336    -4.473170    0.000000    0.000000    -8.946340    0.000000    0.000000    -4.473170    0.000000    0.000000    -16.101753    -1.219540    2.296497    -32.284611    0.000000    0.000000    -16.142302    0.000000    0.000000    -27.683102    -2.876111    4.301881    -55.622871    0.000000    0.000000    -27.811440    0.000000    0.000000    -39.574574    -4.966979    5.980139    -79.668358    0.000000    0.000000    -39.834179    0.000000    0.000000    -9.788191    -10.885243    6.458349    62.374207    45.700577    18.585825    2.241337    -53.287979    89.623703    52.618938    -62.503773    46.926506    -1.742548    0.192427    -1.391456    0.000000    0.000000    -2.229273    0.000000    0.000000    -4.458546    1.917344    0.000000    -0.000000    3.834689    0.000000    -0.000000    1.917344    0.000000    -0.000000    11.502069    -1.185870    -3.039177    23.109184    0.000000    -0.000000    11.554592    0.000000    -0.000000    21.019321    -2.859619    -5.841044    42.383678    0.000000    -0.000000    21.191839    0.000000    -0.000000    30.750488    -5.042027    -8.403017    62.242237    0.000000    -0.000000    31.121124    0.000000    -0.000000    -2.473259    -13.910620    -2.325112    -0.669341    29.792032    17.723032    10.860093    -2.320719    -16.094299    -2.966768    -6.123061    7.469130    2.082923    -2.512583    3.845726    2.561757    22.194275    -11.407586    4.277277    -16.081738    4.276349    1.423355    -21.845758    -5.997790    
-7.538166    80.717461    112.245201    2.896297    -5.661236    0.420900    2.993372    6.662181    3.129708    -11.925421    6.266239    1.756487    3.106956    -2.490696    -3.265627    6.593718    -7.867948    -3.429893    4.492557    -2.761830    -20.096014    -61.426716    13.686457    -11.648046    -11.280483    -38.067722    -121.916428    -51.824936    -67.736885    -48.837505    4.436427    0.998809    6.389054    -0.000000    0.000000    5.661296    -0.000000    0.000000    11.322593    -9.306893    0.097830    -0.596940    -18.614809    0.000000    0.000000    -9.307405    0.000000    0.000000    -20.423306    -1.193987    1.703367    -40.909077    0.000000    0.000000    -20.454540    0.000000    0.000000    -31.489840    -2.904192    3.713381    -63.203342    0.000000    0.000000    -31.601677    0.000000    0.000000    -42.848793    -5.034813    5.404752    -86.173187    0.000000    0.000000    -43.086594    0.000000    0.000000    -11.373496    -11.233605    6.219509    56.896915    42.629848    19.676571    3.825612    -49.858097    101.989235    61.252003    -55.579460    54.820354    -1.546003    -0.074722    -0.860957    0.000000    0.000000    -1.751225    0.000000    0.000000    -3.502451    4.694023    0.000000    -0.000000    9.388049    0.000000    -0.000000    4.694023    0.000000    -0.000000    14.067760    -1.271478    -2.901268    28.238779    0.000000    -0.000000    14.119392    0.000000    -0.000000    23.374676    -2.996991    -5.559382    47.089512    0.000000    -0.000000    23.544758    0.000000    -0.000000    32.893150    -5.198315    -7.974561    66.511490    0.000000    -0.000000    33.255737    0.000000    -0.000000    -2.158553    -11.874603    -1.827321    -0.468466    23.245678    19.916882    9.248612    0.546897    -20.278402    -2.621974    -3.676095    6.507685    2.114692    -2.236322    4.228299    2.238443    21.393648    -11.203372    3.168867    -15.297142    3.858680    0.750767    -27.363663    -6.153410    
-7.469534    80.689796    112.740746    2.773265    -5.704390    0.086013    3.370045    6.423870    3.238304    -12.526801    5.822157    1.782072    3.250713    -2.072233    -3.206554    6.880245    -7.534739    -3.378315    5.138981    -3.084011    -20.033514    -55.363564    11.458014    -12.320913    -11.561831    -33.866264    -130.336151    -57.307980    -64.404541    -52.029991    3.621449    1.176278    5.679351    -0.000000    0.000000    5.086879    -0.000000    0.000000    10.173757    -12.782385    0.426503    -1.879243    -25.578760    0.000000    0.000000    -12.789380    0.000000    0.000000    -23.984137    -0.991056    0.738546    -48.003757    0.000000    0.000000    -24.001877    0.000000    0.000000    -35.121063    -2.888875    3.033449    -70.428749    0.000000    0.000000    -35.214375    0.000000    0.000000    -46.537689    -5.268311    4.973297    -93.533287    0.000000    0.000000    -46.766636    0.000000    0.000000    -12.661798    -11.168341    6.083702    51.080551    38.680637    20.506021    4.258155    -46.743443    111.436035    68.432022    -48.413647    60.013016    -0.737820    -0.287722    -0.023682    0.000000    0.000000    -0.925142    0.000000    0.000000    -1.850284    7.941293    0.000000    -0.000000    15.882586    0.000000    -0.000000    7.941293    0.000000    -0.000000    16.967554    -1.244759    -2.529964    34.019737    0.000000    -0.000000    17.009871    0.000000    -0.000000    25.938517    -2.869914    -4.835438    52.156879    0.000000    -0.000000    26.078440    0.000000    -0.000000    35.125507    -4.897799    -6.919952    70.843628    0.000000    -0.000000    35.421822    0.000000    -0.000000    -1.702275    -10.520655    -0.455207    0.124126    18.976223    20.482756    2.972953    1.626723    -21.620798    -1.390788    -0.630317    3.417268    2.224497    -1.494437    4.221486    2.023462    21.996452    -10.703621    1.658756    -15.985744    3.489415    0.636416    -18.859211    -3.800005    
